<svg xmlns="http://www.w3.org/2000/svg" viewBox="0 0 64 64">
  <rect x="2" y="2" width="60" height="60" rx="16" fill="#f5e545" stroke="#172f2b" stroke-width="4"/>
  <path d="M17 23h31v18c0 9-6 15-15 15h-1c-9 0-15-6-15-15V23Z" fill="#fffdf5" stroke="#172f2b" stroke-width="4" stroke-linejoin="round"/>
  <path d="M48 29h3c6 0 8 4 8 9s-3 9-9 9h-4" fill="none" stroke="#172f2b" stroke-width="4" stroke-linecap="round"/>
  <path d="M19 31h27v10c0 8-5 12-13 12h-1c-8 0-13-4-13-12V31Z" fill="#75c8d3"/>
  <path d="M23 15c-3-4 3-5 0-9M34 15c-3-4 3-5 0-9" fill="none" stroke="#e94d3f" stroke-width="3" stroke-linecap="round"/>
</svg>
