<svg xmlns="http://www.w3.org/2000/svg" viewBox="0 0 64 64">
  <g fill="#f5e545">
    <path d="M7 7h38v31c0 12-8 20-19 20S7 50 7 38V7Z"/>
    <path d="M43 17h5c8 0 13 6 13 14s-5 14-13 14h-5v-7h5c4 0 6-3 6-7s-2-7-6-7h-5v-7Z"/>
  </g>
  <g fill="#75c8d3" transform="translate(3 1) scale(.9)">
    <path d="M7 7h38v31c0 12-8 20-19 20S7 50 7 38V7Z"/>
    <path d="M43 17h5c8 0 13 6 13 14s-5 14-13 14h-5v-7h5c4 0 6-3 6-7s-2-7-6-7h-5v-7Z"/>
  </g>
  <g fill="#fffdf5" stroke="#172f2b" stroke-width="3" stroke-linejoin="round" transform="translate(6 3) scale(.8)">
    <path d="M7 7h38v31c0 12-8 20-19 20S7 50 7 38V7Z"/>
    <path d="M43 17h5c8 0 13 6 13 14s-5 14-13 14h-5v-7h5c4 0 6-3 6-7s-2-7-6-7h-5v-7Z"/>
  </g>
</svg>
